<svg enable-background="new 0 0 128 128" height="128" viewBox="0 0 128 128" width="128" xmlns="http://www.w3.org/2000/svg"><g fill="#282d33"><path d="m22.619 128c-2.509 0-5.037-.437-7.467-1.335l-2.913-1.077 13.262-13.39-1.886-7.101-6.999-1.895-13.286 13.416-1.078-2.972c-2.897-7.986-.93-17.023 5.014-23.023 5.381-5.436 13.134-7.604 20.484-5.81l57.198-57.746c-1.783-7.414.362-15.236 5.741-20.666 5.953-6.011 14.923-7.999 22.851-5.067l2.914 1.077-13.263 13.389 1.886 7.104 7.002 1.894 13.285-13.414 1.077 2.972c2.896 7.987.928 17.024-5.015 23.022-5.381 5.432-13.132 7.602-20.483 5.808l-23.503 23.726-2.842-2.814 25.173-25.413 1.154.351c6.271 1.908 13.037.194 17.659-4.473 4.077-4.116 5.865-9.985 4.936-15.631l-10.238 10.336-11.479-3.104-3.064-11.551 10.269-10.367c-5.593-.944-11.4.854-15.477 4.971-4.63 4.675-6.33 11.522-4.437 17.87l.34 1.137-60.513 61.092-1.155-.352c-6.27-1.909-13.036-.196-17.658 4.473-4.079 4.118-5.867 9.987-4.936 15.635l10.239-10.338 11.477 3.104 3.066 11.547-10.27 10.368c5.587.945 11.399-.855 15.477-4.972 4.63-4.673 6.33-11.521 4.436-17.872l-.339-1.136 21.594-21.8 2.842 2.814-19.949 20.143c1.784 7.417-.362 15.239-5.741 20.667-4.129 4.169-9.709 6.402-15.385 6.403z"/><path d="m103.132 126.6c-1.248 0-2.421-.491-3.302-1.382l-39.183-39.556c-1.805-1.821-1.805-4.787 0-6.611l.016-.016-6.869-6.935 15.668-15.817 6.865 6.934c.882-.883 2.051-1.368 3.294-1.368 1.247 0 2.42.489 3.301 1.376l39.185 39.56c1.806 1.821 1.806 4.787.001 6.611l-15.674 15.821c-.88.891-2.054 1.383-3.302 1.383zm-43.708-54.499 4.524 4.567c.135.136.296.244.464.311l2.808 1.119-3.73 3.768c-.268.271-.269.712 0 .982l39.184 39.556c.16.161.338.195.459.195s.299-.034.458-.194l15.675-15.82c.268-.271.268-.712 0-.982l-39.184-39.56c-.158-.159-.338-.192-.46-.192-.123 0-.303.033-.462.194l-3.768 3.806-1.12-2.865c-.069-.176-.173-.333-.308-.469l-4.502-4.546z"/><path d="m6.796 40.213h66.128v4.001h-66.128z" transform="matrix(.7038 .7104 -.7104 .7038 41.7967 -15.8125)"/><path d="m19.328 24.048-10.145-1.05-8.942-14.151 6.557-6.621 14.047 9.044 1.037 10.21zm-7.802-4.829 6.17.639-.636-6.267-9.702-6.246-2.035 2.056z"/><path d="m64.999 95.649h45.971v4h-45.971z" transform="matrix(.7037 .7105 -.7105 .7037 95.4409 -33.5799)"/><path d="m71.784 88.801h45.969v4h-45.969z" transform="matrix(.7038 .7104 -.7104 .7038 92.582 -40.4287)"/><path d="m68.109 58.957h4v27.672h-4z" transform="matrix(.7106 .7036 -.7036 .7106 71.5099 -28.2617)"/></g></svg>